<mxfile host="app.diagrams.net" modified="2023-11-16T03:40:00.089Z" agent="Mozilla/5.0 (Windows NT 10.0; Win64; x64) AppleWebKit/537.36 (KHTML, like Gecko) Chrome/119.0.0.0 Safari/537.36 Edg/119.0.0.0" etag="fyu_wqmisOs8z-3aOdu6" version="22.1.2" type="github">
  <diagram name="第 1 页" id="hAHmf4qZZ2KicEs8lWRi">
    <mxGraphModel dx="1386" dy="831" grid="1" gridSize="10" guides="1" tooltips="1" connect="1" arrows="1" fold="1" page="1" pageScale="1" pageWidth="827" pageHeight="1169" math="0" shadow="0">
      <root>
        <mxCell id="0" />
        <mxCell id="1" parent="0" />
        <mxCell id="XVm204j-Dv8n3zNNqCus-6" value="" style="edgeStyle=orthogonalEdgeStyle;rounded=0;orthogonalLoop=1;jettySize=auto;html=1;" edge="1" parent="1" source="XVm204j-Dv8n3zNNqCus-1" target="XVm204j-Dv8n3zNNqCus-4">
          <mxGeometry relative="1" as="geometry" />
        </mxCell>
        <mxCell id="XVm204j-Dv8n3zNNqCus-1" value="test" style="rounded=0;whiteSpace=wrap;html=1;" vertex="1" parent="1">
          <mxGeometry x="190" y="160" width="120" height="60" as="geometry" />
        </mxCell>
        <mxCell id="XVm204j-Dv8n3zNNqCus-9" value="" style="edgeStyle=orthogonalEdgeStyle;rounded=0;orthogonalLoop=1;jettySize=auto;html=1;" edge="1" parent="1" source="XVm204j-Dv8n3zNNqCus-2" target="XVm204j-Dv8n3zNNqCus-5">
          <mxGeometry relative="1" as="geometry" />
        </mxCell>
        <mxCell id="XVm204j-Dv8n3zNNqCus-2" value="test" style="rounded=0;whiteSpace=wrap;html=1;" vertex="1" parent="1">
          <mxGeometry x="190" y="510" width="120" height="60" as="geometry" />
        </mxCell>
        <mxCell id="XVm204j-Dv8n3zNNqCus-8" value="" style="edgeStyle=orthogonalEdgeStyle;rounded=0;orthogonalLoop=1;jettySize=auto;html=1;" edge="1" parent="1" source="XVm204j-Dv8n3zNNqCus-3" target="XVm204j-Dv8n3zNNqCus-2">
          <mxGeometry relative="1" as="geometry" />
        </mxCell>
        <mxCell id="XVm204j-Dv8n3zNNqCus-3" value="test" style="rounded=0;whiteSpace=wrap;html=1;" vertex="1" parent="1">
          <mxGeometry x="190" y="400" width="120" height="60" as="geometry" />
        </mxCell>
        <mxCell id="XVm204j-Dv8n3zNNqCus-7" value="" style="edgeStyle=orthogonalEdgeStyle;rounded=0;orthogonalLoop=1;jettySize=auto;html=1;" edge="1" parent="1" source="XVm204j-Dv8n3zNNqCus-4" target="XVm204j-Dv8n3zNNqCus-3">
          <mxGeometry relative="1" as="geometry" />
        </mxCell>
        <mxCell id="XVm204j-Dv8n3zNNqCus-4" value="test" style="rounded=0;whiteSpace=wrap;html=1;" vertex="1" parent="1">
          <mxGeometry x="190" y="280" width="120" height="60" as="geometry" />
        </mxCell>
        <mxCell id="XVm204j-Dv8n3zNNqCus-5" value="test" style="rounded=0;whiteSpace=wrap;html=1;" vertex="1" parent="1">
          <mxGeometry x="190" y="620" width="120" height="60" as="geometry" />
        </mxCell>
      </root>
    </mxGraphModel>
  </diagram>
</mxfile>
